<svg width="48" height="48" viewBox="0 0 48 48" fill="none" xmlns="http://www.w3.org/2000/svg">
<path d="M13.233 42C12.3116 42 11.543 41.692 10.927 41.076C10.311 40.46 10.0023 39.6913 10.001 38.77V17.23C10.001 16.31 10.3096 15.542 10.927 14.926C11.5443 14.31 12.313 14.0013 13.233 14H17.001V13C17.001 11.056 17.6816 9.40333 19.043 8.042C20.4043 6.68067 22.057 6 24.001 6C25.945 6 27.5976 6.68067 28.959 8.042C30.3203 9.40333 31.001 11.056 31.001 13V14H34.771C35.691 14 36.459 14.3087 37.075 14.926C37.691 15.5433 37.9996 16.312 38.001 17.232V38.77C38.001 39.69 37.6923 40.4587 37.075 41.076C36.4576 41.6933 35.6896 42.0013 34.771 42H13.233ZM13.233 40H34.771C35.0776 40 35.3596 39.872 35.617 39.616C35.8743 39.36 36.0023 39.0773 36.001 38.768V17.232C36.001 16.924 35.873 16.6413 35.617 16.384C35.361 16.1267 35.0783 15.9987 34.769 16H31.001V21C31.001 21.2853 30.9056 21.5233 30.715 21.714C30.5243 21.9047 30.2863 22 30.001 22C29.7156 22 29.4776 21.9047 29.287 21.714C29.0963 21.5233 29.001 21.2853 29.001 21V16H19.001V21C19.001 21.2853 18.9056 21.5233 18.715 21.714C18.5243 21.9047 18.2863 22 18.001 22C17.7156 22 17.4776 21.9047 17.287 21.714C17.0963 21.5233 17.001 21.2853 17.001 21V16H13.233C12.925 16 12.6423 16.128 12.385 16.384C12.1276 16.64 11.9996 16.9227 12.001 17.232V38.77C12.001 39.0767 12.129 39.3587 12.385 39.616C12.641 39.8733 12.923 40.0013 13.231 40M19.001 14H29.001V13C29.001 11.592 28.5196 10.4067 27.557 9.444C26.5943 8.48133 25.409 8 24.001 8C22.593 8 21.4076 8.48133 20.445 9.444C19.4823 10.4067 19.001 11.592 19.001 13V14Z" fill="#2C2C2C"/>
</svg>
