<svg width="48" height="48" viewBox="0 0 48 48" fill="none" xmlns="http://www.w3.org/2000/svg">
<path d="M12.392 34.97C14.092 33.746 15.896 32.7787 17.804 32.068C19.7107 31.356 21.776 31 24 31C26.224 31 28.2893 31.356 30.196 32.068C32.1027 32.78 33.9067 33.7467 35.608 34.968C36.928 33.6013 37.99 31.988 38.794 30.128C39.598 28.2653 40 26.2227 40 24C40 19.5667 38.442 15.7913 35.326 12.674C32.21 9.55667 28.4347 7.99867 24 8C19.5653 8.00133 15.79 9.56 12.674 12.676C9.558 15.792 8 19.5667 8 24C8 26.2227 8.402 28.2653 9.206 30.128C10.01 31.9893 11.072 33.6027 12.392 34.968M24.002 25C22.3167 25 20.8947 24.4213 19.736 23.264C18.5773 22.1067 17.9987 20.686 18 19.002C18.0013 17.318 18.58 15.896 19.736 14.736C20.892 13.576 22.3133 12.9973 24 13C25.6867 13.0027 27.108 13.5813 28.264 14.736C29.42 15.8907 29.9987 17.312 30 19C30.0013 20.688 29.4227 22.1093 28.264 23.264C27.1053 24.4187 25.6847 24.9973 24.002 25ZM24 42C21.4893 42 19.1393 41.5327 16.95 40.598C14.7607 39.6633 12.8553 38.386 11.234 36.766C9.61267 35.146 8.33534 33.2407 7.402 31.05C6.46867 28.8593 6.00134 26.5093 6 24C5.99867 21.4907 6.466 19.1407 7.402 16.95C8.338 14.7593 9.61534 12.854 11.234 11.234C12.8553 9.614 14.7607 8.33667 16.95 7.402C19.1393 6.46733 21.4893 6 24 6C26.5107 6 28.8607 6.46733 31.05 7.402C33.2393 8.33667 35.1447 9.614 36.766 11.234C38.3873 12.854 39.6647 14.7593 40.598 16.95C41.5313 19.1407 41.9987 21.4907 42 24C42.0013 26.5093 41.534 28.8593 40.598 31.05C39.662 33.2407 38.3847 35.146 36.766 36.766C35.1447 38.386 33.2393 39.6633 31.05 40.598C28.8607 41.5327 26.5107 42 24 42ZM24 40C25.844 40 27.658 39.6773 29.442 39.032C31.226 38.388 32.768 37.5053 34.068 36.384C32.7693 35.34 31.266 34.5153 29.558 33.91C27.85 33.3047 25.9973 33.0013 24 33C22.0027 32.9987 20.1433 33.2953 18.422 33.89C16.7007 34.4847 15.2033 35.316 13.93 36.384C15.23 37.504 16.7727 38.3867 18.558 39.032C20.3433 39.6773 22.1573 40 24 40ZM24 23C25.1227 23 26.07 22.614 26.842 21.842C27.614 21.07 28 20.1227 28 19C28 17.8773 27.614 16.93 26.842 16.158C26.07 15.386 25.1227 15 24 15C22.8773 15 21.93 15.386 21.158 16.158C20.386 16.93 20 17.8773 20 19C20 20.1227 20.386 21.07 21.158 21.842C21.93 22.614 22.8773 23 24 23Z" fill="#2C2C2C"/>
</svg>
